<svg width="223" height="65" viewBox="0 0 223 65" fill="none" xmlns="http://www.w3.org/2000/svg">
<rect x="5" y="46" width="208" height="5" fill="#FFAB00"/>
<path d="M111 51C111.406 33.8325 122.453 -0.379854 163.391 0.110646C178.418 -1.11561 210.177 7.3455 217 51H111Z" fill="#FFAB00"/>
<path d="M32.736 33.528C32.736 37.368 32 40.584 30.528 43.176C29.056 45.768 26.912 47.72 24.096 49.032C21.312 50.344 17.952 51 14.016 51H4.32V16.728H15.072C18.656 16.728 21.76 17.368 24.384 18.648C27.04 19.928 29.088 21.816 30.528 24.312C32 26.776 32.736 29.848 32.736 33.528ZM25.2 33.72C25.2 31.192 24.832 29.112 24.096 27.48C23.36 25.848 22.256 24.648 20.784 23.88C19.344 23.08 17.568 22.68 15.456 22.68H11.568V45H14.688C18.24 45 20.88 44.056 22.608 42.168C24.336 40.28 25.2 37.464 25.2 33.72ZM50.0273 24.264C53.5473 24.264 56.2353 25.032 58.0913 26.568C59.9793 28.072 60.9233 30.392 60.9233 33.528V51H55.9313L54.5393 47.448H54.3473C53.6113 48.376 52.8433 49.144 52.0433 49.752C51.2753 50.36 50.3793 50.792 49.3553 51.048C48.3633 51.336 47.1313 51.48 45.6593 51.48C44.1233 51.48 42.7313 51.192 41.4833 50.616C40.2673 50.008 39.3073 49.096 38.6033 47.88C37.8993 46.632 37.5473 45.064 37.5473 43.176C37.5473 40.392 38.5233 38.344 40.4753 37.032C42.4273 35.688 45.3553 34.952 49.2593 34.824L53.8193 34.68V33.528C53.8193 32.152 53.4513 31.144 52.7153 30.504C52.0113 29.864 51.0193 29.544 49.7393 29.544C48.4593 29.544 47.2113 29.736 45.9953 30.12C44.7793 30.472 43.5633 30.92 42.3473 31.464L39.9953 26.616C41.4033 25.88 42.9553 25.304 44.6513 24.888C46.3793 24.472 48.1713 24.264 50.0273 24.264ZM51.0353 38.952C48.7313 39.016 47.1313 39.432 46.2353 40.2C45.3393 40.968 44.8913 41.976 44.8913 43.224C44.8913 44.312 45.2113 45.096 45.8513 45.576C46.4913 46.024 47.3233 46.248 48.3473 46.248C49.8833 46.248 51.1793 45.8 52.2353 44.904C53.2913 43.976 53.8193 42.68 53.8193 41.016V38.856L51.0353 38.952ZM75.396 24.792V51H68.244V24.792H75.396ZM71.844 14.52C72.9 14.52 73.812 14.776 74.58 15.288C75.348 15.768 75.732 16.68 75.732 18.024C75.732 19.336 75.348 20.248 74.58 20.76C73.812 21.272 72.9 21.528 71.844 21.528C70.756 21.528 69.828 21.272 69.06 20.76C68.324 20.248 67.956 19.336 67.956 18.024C67.956 16.68 68.324 15.768 69.06 15.288C69.828 14.776 70.756 14.52 71.844 14.52ZM90.021 51H82.869V14.52H90.021V51ZM93.75 24.792H101.574L106.518 39.528C106.678 40.008 106.806 40.488 106.902 40.968C107.03 41.448 107.126 41.944 107.19 42.456C107.286 42.968 107.35 43.512 107.382 44.088H107.526C107.622 43.256 107.75 42.472 107.91 41.736C108.102 40.968 108.31 40.232 108.534 39.528L113.382 24.792H121.062L109.974 54.36C109.302 56.152 108.422 57.656 107.334 58.872C106.278 60.088 105.046 61 103.638 61.608C102.23 62.216 100.694 62.52 99.03 62.52C98.23 62.52 97.526 62.472 96.918 62.376C96.342 62.312 95.83 62.232 95.382 62.136V56.472C95.734 56.536 96.15 56.6 96.63 56.664C97.142 56.728 97.67 56.76 98.214 56.76C99.206 56.76 100.054 56.552 100.758 56.136C101.494 55.72 102.102 55.144 102.582 54.408C103.062 53.704 103.446 52.936 103.734 52.104L104.166 50.808L93.75 24.792ZM137.867 51V16.728H145.115V45H159.035V51H137.867ZM171.584 24.792V51H164.432V24.792H171.584ZM168.032 14.52C169.088 14.52 170 14.776 170.768 15.288C171.536 15.768 171.92 16.68 171.92 18.024C171.92 19.336 171.536 20.248 170.768 20.76C170 21.272 169.088 21.528 168.032 21.528C166.944 21.528 166.016 21.272 165.248 20.76C164.512 20.248 164.144 19.336 164.144 18.024C164.144 16.68 164.512 15.768 165.248 15.288C166.016 14.776 166.944 14.52 168.032 14.52ZM193.553 30.168H187.361V51H180.209V30.168H176.273V26.712L180.209 24.792V22.872C180.209 20.632 180.577 18.904 181.312 17.688C182.081 16.44 183.153 15.56 184.529 15.048C185.937 14.536 187.585 14.28 189.473 14.28C190.881 14.28 192.145 14.392 193.265 14.616C194.417 14.84 195.345 15.096 196.049 15.384L194.225 20.616C193.681 20.456 193.089 20.312 192.449 20.184C191.809 20.024 191.073 19.944 190.241 19.944C189.249 19.944 188.513 20.248 188.033 20.856C187.585 21.464 187.361 22.232 187.361 23.16V24.792H193.553V30.168ZM208.419 24.312C210.851 24.312 212.931 24.776 214.659 25.704C216.419 26.632 217.779 27.976 218.739 29.736C219.699 31.496 220.179 33.656 220.179 36.216V39.672H203.283C203.347 41.688 203.939 43.272 205.059 44.424C206.211 45.576 207.795 46.152 209.811 46.152C211.507 46.152 213.043 45.992 214.419 45.672C215.795 45.32 217.219 44.792 218.691 44.088V49.608C217.411 50.248 216.051 50.712 214.611 51C213.203 51.32 211.491 51.48 209.475 51.48C206.851 51.48 204.531 51 202.515 50.04C200.499 49.048 198.915 47.56 197.763 45.576C196.611 43.592 196.035 41.096 196.035 38.088C196.035 35.016 196.547 32.472 197.571 30.456C198.627 28.408 200.083 26.872 201.939 25.848C203.795 24.824 205.955 24.312 208.419 24.312ZM208.467 29.4C207.091 29.4 205.939 29.848 205.011 30.744C204.115 31.64 203.587 33.032 203.427 34.92H213.459C213.459 33.864 213.267 32.92 212.883 32.088C212.531 31.256 211.987 30.6 211.251 30.12C210.515 29.64 209.587 29.4 208.467 29.4Z" fill="#304FFE"/>
</svg>
